<?xml version="1.0" standalone="no"?>
<!DOCTYPE svg PUBLIC "-//W3C//DTD SVG 20010904//EN"
 "http://www.w3.org/TR/2001/REC-SVG-20010904/DTD/svg10.dtd">
<svg version="1.0" xmlns="http://www.w3.org/2000/svg"
 width="5156.000000pt" height="1392.000000pt" viewBox="0 0 5156.000000 1392.000000"
 preserveAspectRatio="xMidYMid meet">

<g transform="translate(0.000000,1392.000000) scale(0.100000,-0.100000)"
fill="#000000" stroke="none">
<path d="M16630 8765 l0 -3805 515 0 515 0 0 1459 c0 941 4 1496 10 1562 79
777 516 1296 1205 1429 288 55 635 42 901 -36 462 -133 784 -444 944 -909 45
-131 83 -307 99 -457 7 -64 11 -606 11 -1573 l0 -1475 515 0 516 0 -4 1548
c-2 1407 -4 1559 -20 1682 -89 682 -319 1187 -713 1570 -174 168 -333 281
-549 385 -291 142 -596 219 -970 246 -576 40 -1096 -109 -1486 -427 -142 -116
-315 -315 -415 -477 l-44 -71 0 1577 0 1577 -515 0 -515 0 0 -3805z"/>
<path d="M1357 11098 c-710 -959 -1158 -2079 -1306 -3263 -40 -319 -46 -432
-46 -875 0 -443 6 -550 46 -875 222 -1799 1151 -3447 2585 -4585 1030 -818
2276 -1327 3584 -1464 347 -37 858 -48 1180 -26 1354 92 2574 533 3665 1323
557 404 1133 982 1537 1542 559 776 949 1643 1153 2559 48 217 102 528 111
641 l6 70 -1682 1680 c-925 924 -1679 1671 -1676 1660 3 -11 16 -59 30 -107
158 -552 151 -1136 -20 -1669 -208 -650 -644 -1243 -1291 -1756 -792 -629
-1705 -889 -2599 -738 -694 117 -1361 461 -2001 1032 -60 53 -772 759 -1583
1569 l-1475 1474 365 365 c201 201 369 365 375 365 5 0 682 -672 1505 -1494
1495 -1494 1573 -1568 1821 -1748 511 -372 1103 -570 1624 -544 475 23 921
185 1350 490 318 225 669 585 879 901 668 1004 576 2113 -262 3134 -48 58
-163 184 -256 279 l-169 172 -3684 0 -3683 0 -83 -112z"/>
<path d="M12085 9410 c1303 -1303 1801 -1795 1803 -1782 2 11 -6 95 -18 188
-147 1195 -596 2319 -1314 3292 l-76 102 -1097 0 -1098 0 1800 -1800z"/>
<path d="M25309 10390 c-1236 -87 -2177 -815 -2503 -1939 -80 -276 -117 -552
-117 -881 0 -504 86 -897 286 -1305 122 -250 279 -469 475 -665 534 -534 1284
-811 2081 -769 838 44 1502 460 1840 1152 l49 100 0 -561 0 -562 470 0 470 0
0 1415 c0 1552 0 1559 -60 1855 -109 543 -337 990 -690 1354 -429 443 -1003
715 -1670 790 -172 20 -468 27 -631 16z m486 -961 c119 -14 248 -42 365 -80
133 -42 358 -155 470 -235 121 -86 295 -261 382 -384 84 -117 186 -321 232
-460 164 -495 130 -1087 -89 -1536 -257 -524 -735 -859 -1343 -939 -145 -19
-409 -19 -555 0 -564 74 -1029 378 -1292 845 -225 398 -298 908 -199 1398 165
824 801 1359 1669 1406 83 4 253 -3 360 -15z"/>
<path d="M31230 10394 c-373 -25 -698 -103 -964 -233 -494 -240 -810 -639
-917 -1156 -26 -130 -37 -432 -19 -572 78 -621 483 -985 1305 -1172 154 -34
367 -69 720 -116 507 -68 681 -102 843 -166 264 -105 390 -288 367 -533 -13
-142 -68 -259 -174 -369 -182 -189 -455 -292 -838 -316 -602 -38 -1072 143
-1233 473 -42 86 -70 179 -70 233 l0 33 -520 0 -520 0 0 -37 c1 -67 29 -245
55 -338 75 -273 196 -477 410 -691 98 -98 160 -150 254 -213 314 -209 694
-336 1146 -382 159 -16 534 -13 702 5 1032 112 1692 662 1814 1511 13 94 13
374 -1 475 -36 265 -136 480 -307 659 -206 218 -497 368 -913 470 -207 51
-420 87 -865 146 -528 70 -714 112 -879 198 -210 109 -303 298 -263 532 43
242 218 433 494 539 351 135 867 119 1178 -36 213 -107 360 -288 403 -495 l17
-83 507 0 508 0 -5 58 c-26 266 -68 421 -167 615 -262 512 -815 853 -1526 941
-121 15 -440 27 -542 20z"/>
<path d="M36821 10389 c-276 -17 -527 -65 -771 -145 -873 -288 -1417 -971
-1559 -1959 -38 -267 -41 -382 -41 -1872 l0 -1453 515 0 515 0 0 1470 c0 963
4 1504 11 1568 35 324 128 604 274 823 248 373 645 584 1162 618 415 28 804
-65 1093 -262 98 -67 272 -242 335 -337 110 -166 197 -374 244 -588 51 -226
51 -232 51 -1814 l0 -1478 515 0 515 0 0 1463 c0 1492 -2 1603 -40 1862 -142
991 -684 1673 -1555 1960 -370 122 -814 173 -1264 144z"/>
<path d="M43185 10394 c-639 -39 -1171 -224 -1628 -566 -157 -119 -386 -347
-502 -502 -334 -448 -512 -953 -544 -1544 -28 -527 66 -1014 283 -1458 403
-822 1167 -1348 2142 -1474 239 -31 639 -29 884 5 813 113 1484 518 1908 1150
60 90 232 413 232 436 0 5 -227 9 -567 9 l-568 -1 -60 -81 c-114 -153 -307
-314 -484 -403 -166 -83 -383 -144 -606 -170 -150 -17 -452 -20 -575 -5 -234
29 -450 93 -640 190 -161 83 -275 165 -400 290 -217 217 -355 467 -436 787
-19 74 -34 143 -34 154 0 19 43 19 2295 19 l2295 0 0 288 c0 159 -5 338 -11
398 -82 850 -495 1565 -1157 2005 -372 247 -796 399 -1266 454 -124 14 -454
26 -561 19z m430 -965 c609 -67 1103 -401 1355 -914 43 -87 130 -326 130 -355
0 -7 -622 -10 -1740 -10 l-1740 0 6 28 c16 72 81 247 125 337 208 428 565 723
1030 853 260 73 539 93 834 61z"/>
<path d="M49055 10390 c-1122 -83 -1823 -691 -2000 -1735 -44 -263 -45 -305
-45 -2039 l0 -1656 510 0 510 0 0 1568 c0 1562 4 1751 35 1934 70 403 265 692
570 845 268 135 686 175 1024 99 566 -127 857 -536 888 -1245 l6 -151 504 0
503 0 0 145 c0 255 -35 515 -104 766 -209 763 -748 1255 -1552 1418 -231 47
-600 69 -849 51z"/>
<path d="M28972 2989 c-275 -35 -489 -235 -562 -524 -44 -174 -44 -431 1 -600
100 -383 432 -583 809 -489 88 21 252 102 323 159 l58 46 -18 30 c-32 54 -37
54 -105 3 -120 -89 -295 -154 -415 -154 -114 0 -249 54 -340 134 -96 84 -176
246 -202 407 -17 104 -13 292 8 397 51 247 204 422 416 477 112 28 280 14 435
-36 36 -12 66 -23 68 -24 3 -2 32 -240 32 -262 0 -8 15 -13 39 -13 l40 0 5 53
c3 28 7 105 9 171 l4 118 -55 25 c-79 35 -221 71 -327 83 -101 11 -133 11
-223 -1z"/>
<path d="M33270 2991 c-295 -42 -504 -238 -587 -549 -24 -88 -26 -115 -26
-282 0 -168 2 -194 26 -283 70 -262 240 -442 477 -504 90 -24 282 -23 370 1
198 54 353 183 446 371 65 133 85 221 91 405 6 179 -10 297 -56 415 -37 96
-109 203 -179 265 -64 58 -188 122 -276 145 -73 18 -214 26 -286 16z m285
-131 c177 -67 301 -213 357 -419 29 -106 31 -369 5 -486 -56 -246 -218 -425
-432 -480 -74 -19 -203 -19 -274 0 -189 50 -344 214 -396 419 -39 156 -39 386
0 542 56 218 211 382 415 439 80 22 246 14 325 -15z"/>
<path d="M37082 2990 c-151 -21 -277 -84 -382 -190 -91 -92 -133 -160 -176
-288 -44 -129 -58 -245 -51 -412 9 -204 44 -325 131 -458 83 -127 193 -210
341 -259 68 -22 99 -26 205 -27 149 -1 202 10 327 70 193 92 326 266 385 502
19 74 22 114 22 272 0 159 -3 196 -22 265 -73 265 -236 439 -471 504 -84 23
-223 33 -309 21z m237 -115 c152 -36 285 -143 355 -287 112 -229 112 -577 0
-803 -70 -142 -178 -242 -319 -295 -75 -28 -228 -38 -306 -20 -210 48 -371
223 -426 465 -27 120 -24 359 6 480 59 241 208 403 421 459 72 19 189 19 269
1z"/>
<path d="M39298 2990 c-297 -37 -516 -228 -598 -520 -32 -117 -46 -297 -32
-432 15 -148 32 -213 88 -327 83 -168 223 -282 411 -333 62 -16 108 -21 223
-21 178 -1 306 23 493 93 l57 21 0 275 c0 254 1 274 18 274 9 0 56 7 105 16
l87 16 0 41 0 40 -92 -7 c-50 -3 -171 -6 -270 -6 l-178 0 0 -39 c0 -45 1 -45
133 -57 l77 -6 0 -239 0 -238 -78 -25 c-180 -57 -367 -72 -500 -41 -207 49
-360 204 -417 425 -38 147 -38 372 0 523 30 116 91 225 169 302 83 82 145 118
252 145 131 34 305 22 492 -32 86 -25 86 -26 96 -148 12 -149 12 -150 57 -150
37 0 38 1 43 43 3 23 7 100 10 170 l4 129 -44 18 c-163 70 -438 111 -606 90z"/>
<path d="M24700 2795 l0 -185 40 0 c33 0 40 4 45 23 4 21 35 232 35 242 0 3
92 5 205 5 l205 0 0 -700 c0 -385 -1 -700 -2 -701 -2 0 -55 -8 -118 -17 l-115
-17 -3 -38 -3 -37 310 0 311 0 0 35 c0 39 3 38 -125 55 -44 6 -90 13 -102 16
l-23 4 0 700 0 700 205 0 c113 0 205 -3 206 -7 0 -5 8 -64 17 -133 l17 -125
43 -3 42 -3 0 185 0 186 -595 0 -595 0 0 -185z"/>
<path d="M26573 2973 l-93 -4 0 -38 0 -38 110 -13 110 -13 0 -693 c0 -651 -1
-693 -17 -698 -10 -2 -52 -10 -93 -16 -111 -17 -110 -17 -110 -56 l0 -34 580
0 580 0 0 180 0 180 -40 0 c-45 0 -41 9 -63 -160 l-13 -95 -352 -3 -352 -2 0
335 0 335 315 0 315 0 0 50 0 50 -315 0 -315 0 0 320 0 320 338 0 339 0 12
-102 c18 -152 17 -148 62 -148 l39 0 0 175 0 175 -472 -2 c-260 -1 -515 -4
-565 -5z"/>
<path d="M30403 2973 l-103 -4 0 -39 c0 -34 3 -40 22 -40 12 0 61 -5 110 -11
l88 -12 0 -693 c0 -651 -1 -693 -17 -698 -10 -2 -52 -10 -93 -16 -111 -17
-110 -17 -110 -56 l0 -34 275 0 275 0 0 34 c0 40 0 40 -117 57 -45 7 -87 15
-93 19 -7 4 -9 214 -8 661 l3 656 478 -714 478 -713 64 0 65 0 0 749 0 749 63
11 c34 6 83 14 110 17 l47 7 0 40 0 40 -187 -6 c-104 -4 -225 -7 -270 -7 l-83
0 0 -38 0 -39 101 -11 c56 -6 103 -13 105 -15 2 -2 3 -293 2 -646 l-3 -642
-469 700 -470 701 -80 -2 c-45 -1 -127 -4 -183 -5z"/>
<path d="M34968 2973 l-158 -4 0 -38 0 -38 108 -14 107 -14 3 -692 2 -693 -22
-5 c-13 -3 -61 -11 -108 -18 l-85 -13 -3 -37 -3 -37 540 0 541 0 0 190 0 190
-40 0 c-46 0 -44 5 -60 -140 -6 -52 -13 -105 -16 -117 l-4 -23 -310 0 -310 0
0 698 0 698 123 20 122 19 3 38 3 37 -138 -2 c-76 -1 -209 -4 -295 -5z"/>
<path d="M40968 2973 l-148 -4 0 -38 0 -38 105 -13 105 -12 0 -694 c0 -382 -1
-694 -2 -695 -2 0 -48 -8 -103 -17 l-100 -17 -3 -38 -3 -37 276 0 276 0 -3 38
-3 37 -100 15 -100 16 -3 696 -2 696 87 16 c49 9 96 16 106 16 13 0 17 9 17
40 l0 40 -127 -2 c-71 -1 -194 -4 -275 -5z"/>
<path d="M42635 2968 c-75 -205 -557 -1483 -560 -1487 -3 -3 -47 -12 -98 -21
l-92 -16 -3 -37 -3 -37 276 0 276 0 -3 38 -3 37 -110 14 c-60 8 -112 16 -114
17 -2 2 25 82 60 178 l64 176 355 0 355 0 58 -171 c32 -94 56 -174 52 -177 -3
-3 -54 -13 -113 -22 l-107 -16 -3 -37 -3 -37 286 0 286 0 -3 37 -3 37 -92 16
c-51 9 -95 19 -98 22 -3 3 -124 340 -268 749 l-262 744 -63 3 c-44 2 -64 -1
-67 -10z m217 -592 c81 -241 147 -441 145 -443 -2 -2 -146 -2 -320 -1 l-315 3
42 115 c23 63 98 268 166 454 68 187 126 333 128 325 3 -8 72 -212 154 -453z"/>
</g>
</svg>
